<?xml version="1.0" standalone="no"?>
<!DOCTYPE svg PUBLIC "-//W3C//DTD SVG 20010904//EN"
 "http://www.w3.org/TR/2001/REC-SVG-20010904/DTD/svg10.dtd">
<svg version="1.0" xmlns="http://www.w3.org/2000/svg"
 width="1280.000000pt" height="522.000000pt" viewBox="0 0 1280.000000 522.000000"
 preserveAspectRatio="xMidYMid meet">
<metadata>
Created by potrace 1.16, written by Peter Selinger 2001-2019
</metadata>
<g transform="translate(0.000000,522.000000) scale(0.100000,-0.100000)"
fill="#000000" stroke="none">
<path d="M0 2610 l0 -2610 6400 0 6400 0 0 2610 0 2610 -6400 0 -6400 0 0
-2610z m3598 1545 c20 -7 10 -2543 -10 -2557 -7 -4 -141 -6 -298 -3 -157 3
-724 7 -1260 11 -536 3 -979 9 -984 14 -9 9 -9 2332 0 2457 l7 83 591 2 c749
4 1937 -1 1954 -7z m1075 -191 c160 -17 317 -84 405 -173 87 -88 142 -218 142
-338 l0 -54 -157 3 -157 3 -11 56 c-17 81 -55 140 -118 182 -86 58 -139 70
-276 65 -109 -4 -124 -7 -184 -36 -83 -41 -107 -76 -107 -157 0 -56 2 -60 48
-105 59 -59 135 -91 392 -165 422 -121 570 -249 570 -494 0 -154 -64 -275
-191 -362 -130 -88 -258 -122 -464 -122 -179 -1 -299 21 -404 74 -144 72 -231
174 -270 319 -26 93 -29 185 -5 176 9 -3 83 -6 165 -6 l149 0 0 -37 c1 -79 63
-175 140 -217 139 -75 347 -69 474 16 107 70 117 213 20 297 -56 50 -134 82
-353 145 -216 63 -324 103 -391 146 -69 44 -136 119 -167 185 -24 52 -28 71
-27 150 1 127 27 190 113 276 103 103 241 160 435 178 78 8 118 7 229 -5z
m3412 -169 l0 -150 -1322 -3 -1323 -2 0 155 0 155 1323 -2 1322 -3 0 -150z
m1214 -187 c74 -189 172 -440 218 -558 47 -118 127 -323 179 -455 52 -132 101
-255 109 -273 12 -26 12 -34 2 -38 -7 -2 -91 -3 -187 -2 l-174 3 -143 400
c-258 723 -326 910 -333 918 -4 4 -12 2 -18 -6 -6 -7 -108 -302 -226 -655
-118 -353 -217 -646 -221 -652 -6 -9 -345 -16 -345 -6 0 4 128 363 369 1034
120 332 181 502 203 565 l23 67 205 0 205 0 134 -342z m1195 84 c347 -497 608
-867 622 -882 12 -12 14 71 14 563 l0 577 155 0 155 0 0 -835 0 -835 -154 0
c-130 0 -156 2 -167 16 -8 9 -120 173 -251 363 -130 190 -283 413 -340 496
-142 206 -234 341 -373 545 -65 96 -132 192 -148 213 l-29 37 169 -1 168 0
179 -257z m-393 -297 c46 -66 111 -160 146 -209 l63 -89 -2 -406 -3 -406 -149
-3 c-113 -2 -151 1 -158 10 -9 15 -11 964 -1 1126 3 62 9 109 13 105 4 -4 45
-62 91 -128z m-2097 63 c-5 -7 -65 -78 -134 -157 -69 -80 -156 -181 -195 -225
-38 -45 -145 -167 -237 -273 -92 -105 -168 -194 -168 -197 0 -3 184 -6 410 -6
l410 0 5 -22 c3 -13 4 -84 3 -158 l-3 -135 -612 -3 -613 -2 0 143 0 142 91
105 c50 58 142 164 204 235 63 72 122 140 132 151 10 12 95 110 188 218 l170
196 178 0 c140 0 177 -3 171 -12z m-1326 -340 l3 -148 -621 0 -620 0 0 150 0
150 618 -2 617 -3 3 -147z m-3 -678 l0 -155 -617 -3 -618 -2 0 160 0 160 618
-2 617 -3 0 -155z m-6 -441 c21 -7 31 -18 31 -31 0 -15 -4 -18 -17 -13 -72 29
-118 19 -118 -25 0 -21 12 -31 68 -60 37 -19 72 -42 77 -50 34 -54 -19 -130
-90 -130 -48 0 -110 26 -110 46 0 16 31 19 46 5 5 -5 25 -12 46 -16 29 -6 40
-3 57 14 39 39 28 57 -56 100 -91 45 -110 97 -52 145 33 28 68 32 118 15z
m1251 -15 c0 -11 -16 -14 -71 -14 l-70 0 3 -47 3 -48 58 -3 c42 -2 57 -7 57
-17 0 -12 -14 -15 -60 -15 l-60 0 0 -55 0 -54 73 -3 c56 -2 72 -6 72 -18 0
-12 -17 -15 -90 -15 l-90 0 -3 145 c-1 79 -1 149 1 155 3 6 37 9 91 7 66 -3
86 -7 86 -18z m480 11 c17 -9 30 -20 30 -25 0 -16 -20 -22 -35 -10 -7 6 -33
10 -57 8 -38 -3 -43 -6 -46 -29 -4 -30 7 -40 79 -77 65 -32 84 -64 68 -111
-13 -36 -53 -61 -99 -61 -42 0 -100 26 -100 44 0 20 4 20 57 0 35 -14 48 -14
72 -4 58 23 43 73 -31 105 -67 29 -88 52 -88 97 0 32 5 41 33 58 38 24 78 25
117 5z m-2050 -10 c0 -11 -12 -15 -45 -15 l-44 0 -3 -137 c-3 -122 -5 -138
-20 -141 -16 -3 -18 9 -18 137 l0 140 -47 3 c-26 2 -48 9 -51 16 -3 9 24 12
112 12 96 0 116 -3 116 -15z m658 -37 c43 -116 84 -250 78 -255 -13 -13 -35 9
-48 49 l-15 43 -58 0 -59 0 -15 -47 c-13 -44 -32 -60 -45 -40 -3 5 5 38 18 73
13 35 35 101 50 147 24 72 31 82 51 82 19 0 27 -10 43 -52z m404 38 c44 -33
44 -115 0 -144 -15 -9 -51 -19 -82 -22 l-55 -5 -3 -62 c-4 -86 -27 -86 -36 -2
-8 81 -8 234 1 242 12 13 157 7 175 -7z m140 -123 l3 -137 65 -1 c51 0 65 -3
65 -15 0 -12 -16 -15 -85 -15 l-85 0 -3 153 c-2 146 -2 152 17 152 19 0 21 -8
23 -137z m604 -14 c28 -82 47 -152 43 -155 -17 -10 -38 11 -49 52 l-13 44 -58
0 -58 0 -13 -47 c-9 -30 -20 -49 -31 -51 -9 -2 -17 2 -17 10 0 7 21 77 47 156
44 133 49 142 73 142 23 0 28 -10 76 -151z m394 36 c0 -110 1 -117 25 -140 31
-32 59 -32 90 0 24 23 25 30 25 140 0 110 1 115 21 115 20 0 21 -4 17 -126
l-3 -126 -33 -29 c-34 -31 -78 -38 -126 -19 -44 16 -56 57 -56 185 0 108 1
115 20 115 19 0 20 -7 20 -115z m444 94 c20 -15 26 -29 26 -58 0 -40 -23 -81
-46 -81 -22 0 -17 -20 21 -82 32 -55 33 -74 3 -63 -8 3 -30 33 -49 65 -28 50
-39 60 -61 60 -26 0 -27 -2 -30 -62 -2 -50 -6 -63 -20 -66 -17 -3 -18 9 -18
152 l0 156 74 0 c59 0 78 -4 100 -21z m276 6 c0 -12 -15 -15 -71 -15 l-70 0 3
-47 3 -48 58 -3 c42 -2 57 -7 57 -17 0 -12 -14 -15 -60 -15 l-60 0 0 -55 0
-55 63 0 c68 0 99 -12 81 -30 -7 -7 -44 -10 -95 -8 l-84 3 -3 153 -3 152 91 0
c73 0 90 -3 90 -15z"/>
<path d="M1264 4133 l-181 -3 -6 -107 c-4 -58 -7 -619 -7 -1245 0 -902 3
-1139 13 -1142 6 -3 568 -7 1248 -10 l1236 -5 7 137 c11 244 12 2350 1 2361
-10 10 -1944 22 -2311 14z m533 -29 c14 -4 24 -17 28 -35 l7 -30 43 26 c42 24
82 34 71 17 -2 -4 -72 -41 -155 -82 -97 -48 -151 -80 -151 -90 0 -8 9 -28 19
-44 22 -33 19 -46 -10 -46 -20 0 -24 -17 -13 -57 9 -32 15 -29 47 22 57 90
163 177 282 231 114 53 305 67 566 42 111 -10 132 -9 177 5 70 23 119 22 132
-2 9 -18 120 -505 120 -530 0 -7 -20 -11 -52 -11 -49 0 -57 4 -113 52 -96 82
-262 184 -287 176 -6 -2 15 -26 47 -54 117 -98 155 -137 175 -180 20 -39 25
-44 57 -44 57 0 93 -25 93 -67 0 -30 -18 -39 -35 -17 -11 15 -17 17 -32 8 -14
-9 -17 -22 -15 -58 5 -76 -38 -136 -98 -136 -43 0 -63 13 -162 107 -75 70
-108 89 -108 59 0 -8 -8 -24 -18 -36 -16 -20 -21 -21 -41 -10 -24 12 -25 31
-5 98 5 19 1 25 -25 35 -17 6 -31 15 -31 19 0 13 38 9 77 -7 57 -24 173 -18
173 10 0 17 -31 42 -62 50 -27 7 -39 25 -18 25 6 0 10 5 10 10 0 17 -43 11
-79 -11 -18 -11 -34 -19 -35 -17 -12 27 -28 44 -62 64 -36 21 -43 22 -60 10
-17 -13 -19 -26 -17 -117 2 -71 7 -109 18 -125 8 -13 15 -39 15 -58 0 -27 9
-45 38 -76 37 -38 62 -51 62 -31 0 22 34 41 73 41 36 0 45 -5 64 -33 24 -35
30 -67 13 -67 -5 0 -10 -4 -10 -10 0 -15 84 -12 127 4 21 8 79 26 129 40 112
31 234 84 234 102 0 7 -9 16 -20 19 -28 9 -25 21 10 34 17 5 30 14 30 19 0 5
-9 44 -20 88 -30 116 -36 251 -16 351 17 86 39 148 56 158 22 13 8 31 -32 43
-52 14 -103 44 -116 69 -10 17 -1 18 166 15 148 -2 189 -6 250 -24 71 -21 74
-21 84 -4 32 56 74 70 108 36 27 -27 25 -40 -4 -40 -13 0 -29 -6 -35 -14 -19
-23 -2 -87 31 -117 27 -26 27 -28 13 -55 -8 -16 -15 -50 -15 -75 0 -38 5 -50
30 -72 37 -33 39 -63 5 -71 -17 -4 -28 -17 -36 -46 -12 -38 -11 -40 25 -80 20
-22 36 -44 36 -48 0 -14 -24 -32 -42 -32 -10 0 -30 -7 -43 -16 -30 -19 -140
-153 -132 -160 3 -3 36 -12 74 -20 94 -19 124 -56 85 -105 -14 -16 -24 -20
-38 -15 -12 6 -15 10 -6 13 23 9 12 31 -21 42 -46 16 -167 -20 -167 -49 0 -15
85 -103 121 -126 57 -36 99 -28 99 18 0 16 3 17 20 8 31 -17 26 -63 -11 -94
-17 -14 -39 -26 -49 -26 -32 0 -31 -16 4 -87 66 -132 70 -153 71 -328 1 -88 5
-203 9 -255 5 -61 4 -129 -3 -190 -28 -227 -27 -252 14 -352 6 -15 2 -18 -19
-18 -26 0 -35 10 -91 105 -10 17 -14 16 -50 -8 -57 -37 -137 -56 -194 -45 -52
10 -164 10 -231 0 -34 -5 -46 -12 -48 -27 -5 -27 -21 -45 -40 -45 -22 0 -52
30 -52 52 0 24 -16 23 -69 -7 -24 -14 -47 -23 -50 -19 -10 9 35 41 87 60 77
30 212 105 212 118 0 7 -5 28 -11 46 -10 27 -9 34 4 41 17 10 32 63 22 79 -5
7 -13 3 -23 -12 -102 -153 -218 -242 -378 -289 -102 -30 -293 -36 -475 -15
-119 14 -159 15 -213 5 -58 -10 -70 -9 -92 5 -14 10 -29 27 -34 39 -15 34
-100 434 -100 468 0 26 3 29 31 29 41 0 63 -13 132 -76 52 -48 222 -152 232
-142 2 2 -22 31 -54 65 -32 33 -74 85 -93 114 -34 52 -39 55 -107 72 -80 21
-107 46 -95 91 7 31 3 30 46 11 52 -21 73 -3 73 65 0 46 4 55 33 81 59 53 115
35 216 -70 70 -73 100 -86 109 -51 6 25 46 41 70 28 28 -14 32 -36 13 -74 -22
-48 -7 -79 35 -70 31 6 37 -2 17 -22 -18 -18 -46 -15 -85 9 -29 18 -44 21 -90
15 -76 -9 -82 -16 -39 -38 34 -17 36 -21 21 -32 -15 -11 -15 -13 -1 -25 15
-13 31 -12 99 5 24 5 28 4 25 -11 -2 -14 6 -21 32 -28 19 -5 41 -13 47 -19 23
-19 41 0 53 56 9 46 9 70 -4 131 -9 42 -20 84 -26 95 -5 10 -10 30 -10 43 0
16 -14 37 -40 61 -47 42 -57 44 -56 13 1 -20 -4 -22 -53 -25 -44 -3 -57 1 -73
17 -10 12 -23 21 -28 21 -20 0 -9 40 16 56 23 15 24 18 9 27 -21 11 -87 2
-126 -18 -16 -9 -50 -15 -76 -14 -33 1 -73 -9 -128 -31 -118 -47 -145 -66
-145 -101 0 -22 -6 -30 -25 -35 -18 -4 -24 -11 -21 -23 66 -222 62 -414 -13
-581 l-20 -45 57 -26 c56 -26 122 -83 109 -95 -3 -4 -28 -1 -54 7 -30 8 -111
13 -213 14 -104 1 -176 6 -194 14 -25 10 -32 9 -51 -9 -28 -27 -86 -27 -110 0
-10 11 -14 21 -9 22 5 0 14 2 19 3 6 2 16 3 23 4 20 2 14 63 -12 112 -21 38
-24 55 -19 105 4 52 2 63 -21 93 -31 41 -33 76 -7 90 18 10 41 59 41 87 0 7
-11 26 -25 42 -37 44 -33 66 16 88 30 13 55 37 90 88 27 38 49 72 49 76 0 4
-17 11 -37 15 -95 18 -151 85 -107 129 26 27 44 20 38 -13 -5 -23 -2 -32 16
-41 42 -22 170 15 170 50 0 19 -48 67 -104 104 -39 26 -99 35 -111 16 -3 -5
-13 -10 -21 -10 -22 0 -16 39 11 65 19 20 34 25 75 25 27 0 50 2 50 5 0 2 -22
38 -49 80 -100 153 -100 151 -87 610 11 385 11 423 -7 487 -8 32 -12 60 -8 63
10 6 83 -71 106 -112 l18 -32 40 34 c67 58 182 82 254 54 17 -7 58 -8 108 -4
77 6 81 8 103 41 24 36 25 37 59 28z"/>
<path d="M1382 4011 c-63 -22 -123 -76 -151 -137 -11 -23 -28 -82 -37 -131 -9
-48 -20 -99 -25 -113 -12 -36 0 92 16 165 17 76 13 165 -7 194 -15 21 -16 14
-15 -96 1 -65 -3 -184 -7 -264 -9 -155 -3 -230 17 -210 7 7 10 42 8 93 -2 96
27 262 59 335 26 60 93 129 138 144 19 6 55 11 80 11 27 -1 42 2 36 8 -19 19
-61 19 -112 1z"/>
<path d="M2105 4016 c-231 -54 -384 -189 -450 -398 -43 -135 -28 -269 47 -418
51 -101 157 -218 288 -316 72 -55 205 -134 224 -134 13 0 28 81 22 123 -7 45
-8 46 -124 123 -310 206 -403 416 -297 676 24 58 24 58 3 58 -20 0 -21 1 -3
20 10 11 48 35 84 54 36 18 93 47 126 65 33 17 87 36 120 42 91 17 262 6 398
-26 110 -25 120 -26 137 -10 15 13 80 124 80 136 0 2 -55 4 -122 4 -68 0 -202
4 -298 8 -135 5 -189 4 -235 -7z"/>
<path d="M2762 3982 c-12 -27 -36 -70 -53 -95 l-31 -47 59 -65 c33 -35 79
-100 104 -144 29 -52 50 -81 62 -81 22 0 22 0 -9 133 -87 381 -91 391 -132
299z"/>
<path d="M3180 3926 c-34 -19 -70 -85 -77 -144 -4 -37 0 -60 16 -97 11 -26 21
-49 21 -51 0 -11 -30 -2 -53 16 -14 11 -28 20 -31 20 -18 0 14 -264 34 -284
25 -25 90 80 110 179 12 56 9 162 -6 222 -9 35 15 21 62 -35 37 -44 39 -50 39
-117 1 -38 5 -84 9 -101 7 -28 4 -37 -28 -72 -20 -21 -36 -49 -36 -60 0 -11
-18 -43 -39 -70 -29 -37 -37 -52 -28 -61 19 -19 41 -12 68 22 37 46 45 65 58
128 9 42 17 58 31 62 16 4 18 11 13 41 -5 34 -3 37 26 47 27 10 31 15 31 49 0
24 -5 40 -15 44 -21 8 -19 40 6 62 16 15 19 26 14 54 -3 19 -14 42 -25 51 -10
9 -20 26 -22 40 -5 34 -67 48 -106 23 -34 -22 -37 -21 -34 16 4 33 -2 35 -38
16z"/>
<path d="M2140 3897 c-68 -14 -125 -40 -174 -80 l-30 -24 43 -27 c28 -18 46
-24 54 -18 7 5 46 22 87 37 142 52 339 31 488 -52 77 -42 163 -102 209 -146
18 -17 36 -28 39 -24 13 12 -78 148 -144 216 l-67 69 -115 27 c-134 33 -290
41 -390 22z"/>
<path d="M1266 3832 c-27 -53 -56 -193 -56 -274 0 -43 4 -78 9 -78 5 0 34 11
66 26 33 14 86 28 124 31 36 3 73 11 81 18 8 7 25 18 37 24 22 11 22 10 16
-38 -5 -40 -1 -56 17 -85 12 -20 25 -47 28 -61 4 -13 8 41 9 121 2 109 -1 155
-12 181 l-15 35 -32 -23 c-24 -18 -50 -25 -99 -27 -88 -5 -113 15 -138 113
l-18 69 -17 -32z"/>
<path d="M2171 3764 c-30 -8 -71 -24 -92 -36 -35 -19 -39 -26 -39 -60 0 -49
-20 -88 -64 -125 -34 -27 -35 -30 -25 -71 29 -129 98 -204 312 -336 124 -77
101 -45 -29 41 -110 73 -120 81 -138 128 -14 37 -20 76 -20 151 l-1 101 63 71
c69 77 128 109 227 122 49 6 50 6 22 18 -38 16 -150 14 -216 -4z"/>
<path d="M1867 3722 c-9 -10 -27 -40 -39 -67 -20 -43 -23 -66 -23 -170 0 -115
1 -123 33 -187 55 -112 181 -232 335 -318 54 -30 62 -32 96 -21 30 8 42 19 56
51 18 39 18 41 -1 55 -10 8 -22 15 -27 15 -23 1 -200 122 -258 177 -96 91
-124 151 -124 263 0 69 4 93 23 128 28 54 28 66 -3 80 -35 16 -49 15 -68 -6z"/>
<path d="M1339 3496 c-160 -43 -235 -226 -170 -418 22 -65 97 -189 168 -276
63 -77 47 -36 -22 58 -178 243 -201 441 -66 563 39 35 119 67 168 67 13 0 23
5 23 10 0 13 -44 12 -101 -4z"/>
<path d="M1315 3442 c-17 -10 -44 -35 -62 -55 -29 -33 -31 -39 -21 -73 25 -93
158 -404 172 -404 3 0 14 17 25 38 17 32 57 69 66 60 1 -2 -2 -28 -7 -58 -9
-47 -7 -69 11 -140 12 -47 26 -89 30 -93 4 -4 20 -3 34 2 30 12 36 41 12 61
-30 25 -5 80 30 67 24 -10 27 10 4 32 -11 10 -31 42 -44 70 -13 27 -45 70 -71
95 -42 41 -46 49 -41 79 6 41 1 49 -39 66 -18 7 -45 26 -60 42 -24 25 -29 39
-29 81 0 42 4 53 28 74 15 13 37 24 48 24 10 0 19 4 19 9 0 5 3 16 6 25 9 23
-72 21 -111 -2z"/>
<path d="M2462 3412 c1 -5 47 -50 102 -101 88 -81 103 -91 136 -91 37 0 50 12
50 45 0 22 -59 84 -99 104 -31 16 -67 26 -169 47 -13 3 -22 1 -20 -4z"/>
<path d="M1601 3345 c-1 -11 -15 -48 -31 -83 l-31 -62 48 -87 c65 -119 161
-215 266 -265 42 -21 87 -38 98 -38 12 0 34 -11 50 -24 41 -35 189 -89 189
-69 0 5 -15 14 -32 21 -61 22 -212 128 -295 206 -134 126 -221 256 -249 369
-7 29 -13 43 -13 32z"/>
<path d="M2955 3204 c-33 -14 -94 -34 -135 -45 -91 -23 -110 -42 -110 -109 0
-60 24 -91 99 -130 125 -63 251 -183 301 -288 19 -40 39 -71 45 -69 5 2 11 20
13 39 3 31 -4 44 -41 86 -24 27 -47 62 -51 78 -11 44 -53 81 -107 95 -48 13
-59 22 -39 34 19 12 10 41 -22 72 -45 42 -70 53 -117 53 -34 0 -41 3 -41 19 0
26 13 33 43 22 33 -13 64 -4 70 20 4 14 14 19 36 19 53 0 100 25 106 57 4 15
10 36 16 45 19 35 14 35 -66 2z"/>
<path d="M1497 3183 c-4 -3 -7 -24 -7 -46 0 -34 6 -45 42 -78 24 -22 46 -39
50 -39 5 0 8 -10 8 -21 0 -38 41 -97 79 -114 60 -27 66 -31 69 -55 2 -13 18
-38 36 -56 27 -28 41 -34 73 -34 41 0 70 -20 58 -40 -3 -5 -29 -10 -57 -10
-34 0 -58 -6 -74 -19 -13 -11 -47 -22 -74 -26 -42 -6 -53 -12 -65 -35 -14 -27
-21 -90 -10 -90 2 0 33 16 68 35 35 19 101 48 148 64 l84 29 3 43 c6 74 -2 85
-91 136 -114 66 -242 194 -291 291 -38 75 -39 76 -49 65z"/>
<path d="M3078 3039 c-22 -12 -23 -52 -3 -69 26 -21 18 -46 -17 -56 -44 -13
-45 -34 -5 -61 21 -13 44 -42 59 -75 14 -29 40 -71 57 -92 17 -22 34 -57 38
-78 3 -24 12 -42 22 -45 55 -17 75 -30 92 -57 39 -64 13 -146 -46 -146 -30 0
-33 15 -5 30 12 6 20 21 20 35 0 28 -32 65 -55 65 -10 0 -14 -11 -14 -37 0
-21 -3 -71 -7 -110 l-6 -73 47 0 c56 0 123 34 144 74 28 51 -2 166 -109 424
-23 56 -46 102 -50 102 -4 0 -13 -14 -20 -31 -13 -30 -47 -69 -61 -69 -3 0 -4
31 -1 70 3 49 -1 90 -14 140 -18 72 -29 81 -66 59z"/>
<path d="M2460 3036 c0 -2 38 -25 84 -51 224 -126 400 -325 466 -529 l13 -39
12 30 c7 16 27 46 45 66 l32 37 -23 56 c-44 109 -142 211 -274 285 -38 21 -91
42 -116 45 -35 5 -55 15 -77 38 -20 22 -49 38 -91 49 -64 18 -71 19 -71 13z"/>
<path d="M2422 2956 c-34 -75 -20 -101 100 -192 307 -233 392 -408 327 -670
-23 -91 -23 -91 -128 -161 -162 -107 -330 -133 -556 -87 -38 8 -85 14 -104 14
-48 0 -109 -32 -156 -81 l-40 -42 65 7 c36 3 118 -1 185 -9 360 -43 608 12
752 169 112 123 156 256 135 414 -20 148 -64 246 -173 384 -74 94 -165 174
-276 240 -112 67 -108 67 -131 14z"/>
<path d="M3350 2890 c0 -5 18 -37 39 -70 61 -94 85 -177 86 -290 0 -108 -20
-168 -78 -229 -43 -45 -84 -61 -159 -62 l-63 -1 45 -10 c32 -8 58 -7 90 1 164
44 233 259 156 482 -33 94 -116 223 -116 179z"/>
<path d="M2366 2794 c-30 -28 -60 -89 -51 -103 3 -5 47 -35 97 -66 176 -109
271 -201 304 -293 18 -50 17 -155 -1 -199 -20 -47 -19 -76 3 -96 25 -23 45
-21 70 6 40 43 65 117 65 192 0 181 -99 328 -344 510 -55 41 -104 75 -107 75
-4 0 -20 -12 -36 -26z"/>
<path d="M1660 2714 c-36 -8 -126 -44 -200 -79 -75 -36 -153 -68 -173 -72 -63
-10 -43 -26 26 -21 50 5 82 16 167 61 58 30 144 68 193 83 48 16 87 32 87 36
0 11 -22 9 -100 -8z"/>
<path d="M1918 2505 c-15 -33 4 -76 50 -116 52 -46 92 -59 176 -59 85 0 105
13 47 31 -27 8 -62 35 -116 90 -67 68 -82 79 -111 79 -27 0 -37 -5 -46 -25z"/>
<path d="M1422 2458 c-33 -36 -72 -123 -72 -160 0 -46 -10 -54 -32 -26 -15 19
-18 20 -18 5 0 -9 5 -26 12 -36 16 -26 3 -50 -32 -57 -27 -6 -30 -10 -30 -44
0 -24 7 -43 20 -55 26 -23 25 -31 -5 -57 -14 -12 -25 -31 -25 -42 0 -20 36
-81 74 -123 25 -29 66 -30 73 -3 9 35 33 24 33 -15 0 -19 2 -35 5 -35 22 0 64
34 82 67 30 53 37 103 24 164 -6 28 -9 54 -7 57 3 3 17 -3 32 -12 14 -10 29
-15 32 -11 21 20 -13 285 -39 300 -12 8 -66 -70 -88 -129 -31 -84 -36 -155
-16 -241 10 -41 15 -79 11 -83 -13 -12 -74 64 -85 105 -6 22 -12 80 -13 129
-3 86 -2 91 30 140 17 28 32 62 32 75 0 14 13 40 30 59 16 19 29 38 30 43 0
16 -38 6 -58 -15z"/>
<path d="M2543 2453 c3 -16 13 -53 23 -84 12 -42 15 -72 9 -114 -6 -50 -13
-64 -53 -108 -26 -27 -80 -74 -119 -103 -40 -30 -73 -59 -73 -64 0 -22 165 2
236 34 l52 24 4 68 c4 63 6 69 42 100 37 32 37 32 26 76 -17 62 -59 135 -97
169 -42 37 -57 37 -50 2z"/>
<path d="M3038 2233 c2 -70 8 -120 18 -140 8 -18 16 -33 18 -33 2 0 23 7 46
15 58 20 123 19 169 -4 51 -27 65 -46 67 -95 1 -22 5 -51 9 -63 9 -29 -42 -83
-78 -83 -14 0 -30 -7 -37 -15 -36 -44 49 -25 95 21 48 48 85 168 91 299 7 127
1 136 -61 99 -40 -23 -63 -29 -132 -32 -76 -4 -87 -7 -113 -33 -48 -49 -58
-40 -39 35 10 40 9 46 -21 89 -17 26 -32 47 -33 47 -1 0 -1 -48 1 -107z"/>
<path d="M3465 2299 c-4 -11 -4 -55 0 -97 10 -120 -36 -315 -87 -370 -36 -38
-101 -71 -153 -79 -42 -5 -45 -7 -25 -15 55 -20 181 45 215 113 26 49 65 231
65 302 0 43 4 67 11 67 18 0 -10 -236 -45 -380 -6 -25 7 -60 19 -49 11 11 39
276 40 374 0 102 -8 155 -25 155 -5 0 -12 -9 -15 -21z"/>
<path d="M1737 2193 c-7 -11 61 -316 94 -421 l11 -33 51 49 c29 26 66 57 82
67 17 10 32 20 34 21 1 2 -26 32 -62 68 -36 37 -94 106 -128 154 -76 107 -75
106 -82 95z"/>
<path d="M1800 2157 c1 -18 163 -211 204 -242 29 -22 61 -31 173 -51 153 -26
230 -29 318 -13 64 12 175 61 200 89 15 16 13 20 -15 44 -39 32 -45 32 -116 1
-115 -51 -234 -55 -387 -15 -128 34 -206 70 -294 136 -46 35 -83 57 -83 51z"/>
</g>
</svg>
